# xmcd
#
# Track frame offsets: 
#        150
#        23217
#        37490
#        56097
#        77767
#        97777
#        118570
#        139430
#        157680
#        175412
#        185852
#        208190
#        232627
#        251885
#
# Disc length: 3929 seconds
#
# Revision: 0
# Processed by: cddbd v1.4PL0 Copyright (c) Steve Scherf et al.
# Submitted via: ExactAudioCopy v0.90b2
#
DISCID=c30f570e
DTITLE=John Mayall - Drivin' On Disc 2
DYEAR=1998
DGENRE=Blues
TTITLE0=Disconnected Line
TTITLE1=Arizona Bound
TTITLE2=Do I Please You
TTITLE3=The Last Time
TTITLE4=Now And Then
TTITLE5=Goodnight Dreams
TTITLE6=Tuscon Lady
TTITLE7=Parchman Farm
TTITLE8=Lonely Birthday
TTITLE9=Another Man
TTITLE10=Hard Times Again
TTITLE11=My Time After Awhile
TTITLE12=Howling Moon
TTITLE13=Looking Out For Willie
EXTD=
EXTT0=
EXTT1=
EXTT2=
EXTT3=
EXTT4=
EXTT5=
EXTT6=
EXTT7=
EXTT8=
EXTT9=
EXTT10=
EXTT11=
EXTT12=
EXTT13=
PLAYORDER=
